<?xml version="1.0" encoding="iso-8859-1"?>
<!-- Uploaded to: SVG Repo, www.svgrepo.com, Generator: SVG Repo Mixer Tools -->
<svg height="800px" width="800px" version="1.1" id="Layer_1" xmlns="http://www.w3.org/2000/svg" xmlns:xlink="http://www.w3.org/1999/xlink" 
	 viewBox="0 0 512 512" xml:space="preserve">
<path style="fill:#FFD15D;" d="M117.824,184.162L240.121,61.863c42.541-42.541,111.514-42.541,154.054,0
	c42.541,42.541,42.541,111.515,0,154.057L271.88,338.219c-42.541,42.541-111.514,42.541-154.054,0
	C75.283,295.677,75.283,226.703,117.824,184.162z"/>
<path style="fill:#F56E92;" d="M371.068,84.971c-29.73-29.732-78.107-29.732-107.839,0l-23.108,23.108l-99.188,99.189
	c-29.732,29.732-29.73,78.108,0,107.84s78.107,29.732,107.839,0L371.068,192.81C400.8,163.08,400.799,114.703,371.068,84.971z"/>
<g>
	<path style="fill:#3E0412;" d="M447.868,130.722h-13.957c-1.709-24.663-11.175-48.88-28.386-68.653l9.834-9.832
		c3.191-3.191,3.191-8.364,0-11.554c-3.19-3.191-8.363-3.192-11.554-0.001l-9.83,9.829c-19.263-16.794-43.16-26.694-68.656-28.44
		V8.17c0-4.513-3.658-8.17-8.17-8.17c-4.512,0-8.17,3.657-8.17,8.17v13.9c-25.496,1.746-49.393,11.645-68.656,28.44l-9.829-9.829
		c-3.191-3.19-8.364-3.191-11.554,0.001c-3.191,3.191-3.191,8.364,0,11.554l9.628,9.628l-49.594,49.595l-9.628-9.628
		c-3.191-3.19-8.364-3.19-11.554,0c-3.191,3.192-3.191,8.364,0,11.555l9.628,9.628l-49.596,49.595l-9.629-9.628
		c-3.191-3.19-8.364-3.191-11.554,0.001c-3.191,3.191-3.191,8.364,0,11.554l9.832,9.832c-17.212,19.774-26.676,43.991-28.385,68.654
		H64.133c-4.512,0-8.17,3.657-8.17,8.17s3.658,8.17,8.17,8.17h13.957c1.709,24.663,11.175,48.88,28.385,68.654l-29.09,29.09
		c-10.802,10.802-16.751,25.164-16.751,40.441c0,15.275,5.949,29.638,16.751,40.44c10.802,10.801,25.164,16.75,40.44,16.75
		s29.638-5.949,40.44-16.751l7.702-7.702c15.927-15.928,41.844-15.927,57.771-0.001c15.927,15.928,15.927,41.845,0,57.771
		c-3.191,3.192-3.191,8.364,0,11.555c1.595,1.595,3.686,2.392,5.777,2.392s4.182-0.797,5.777-2.392
		c22.298-22.299,22.298-58.581,0-80.881c-22.299-22.298-58.58-22.298-80.88,0.001l-7.702,7.702
		c-7.716,7.716-17.974,11.964-28.885,11.964s-21.17-4.248-28.885-11.964c-7.716-7.715-11.964-17.973-11.964-28.885
		c0-10.913,4.25-21.171,11.964-28.886l29.087-29.087c19.263,16.794,43.16,26.692,68.656,28.438v13.901c0,4.513,3.658,8.17,8.17,8.17
		c4.512,0,8.17-3.657,8.17-8.17V378.01c25.496-1.745,49.393-11.644,68.656-28.438l9.829,9.829c1.595,1.595,3.686,2.392,5.777,2.392
		c2.09,0,4.182-0.797,5.777-2.393c3.191-3.191,3.191-8.364,0-11.554l-9.628-9.628l49.594-49.595l9.629,9.628
		c1.595,1.595,3.686,2.392,5.777,2.392c2.09,0,4.182-0.797,5.777-2.393c3.191-3.191,3.191-8.363,0-11.554l-9.628-9.628
		l49.594-49.595l9.629,9.628c1.595,1.595,3.686,2.392,5.777,2.392c2.09,0,4.182-0.797,5.777-2.393c3.191-3.191,3.191-8.364,0-11.554
		l-9.832-9.832c17.212-19.774,26.676-43.991,28.385-68.654h13.957c4.512,0,8.17-3.657,8.17-8.17
		C456.037,134.378,452.38,130.722,447.868,130.722z M388.399,210.143L266.102,332.442c-19.032,19.032-44.335,29.514-71.251,29.514
		c-26.915,0-52.219-10.482-71.25-29.514c-39.287-39.287-39.287-103.215,0-142.502L245.898,67.641
		c19.028-19.029,44.324-29.509,71.234-29.515c26.943,0.004,52.24,10.485,71.267,29.515
		C427.686,106.928,427.686,170.855,388.399,210.143z"/>
	<circle style="fill:#3E0412;" cx="332.557" cy="162.77" r="8.17"/>
	<circle style="fill:#3E0412;" cx="332.557" cy="116.549" r="8.17"/>
	<path style="fill:#3E0412;" d="M257.453,79.193c-3.191,3.192-3.191,8.364,0,11.555c3.191,3.19,8.364,3.19,11.554,0
		c26.545-26.545,69.738-26.546,96.284-0.001c26.545,26.546,26.545,69.741,0,96.286L242.995,309.332
		c-12.837,12.837-29.934,19.906-48.143,19.906s-35.306-7.069-48.142-19.906c-12.836-12.835-19.905-29.933-19.905-48.142
		s7.069-35.307,19.905-48.143l99.188-99.189c3.191-3.192,3.191-8.364,0-11.555c-3.191-3.19-8.364-3.19-11.554,0l-99.188,99.189
		c-15.923,15.923-24.691,37.124-24.691,59.698c0,22.575,8.768,43.775,24.691,59.696c15.922,15.923,37.123,24.692,59.696,24.692
		s43.774-8.769,59.696-24.691L376.846,198.59c32.917-32.918,32.917-86.478,0-119.396C343.928,46.277,290.368,46.277,257.453,79.193z
		"/>
	<circle style="fill:#3E0412;" cx="179.449" cy="237.314" r="8.17"/>
	<path style="fill:#3E0412;" d="M237.735,214.454c-1.715,1.715-2.842,1.822-6.486,1.929c-4.451,0.131-11.179,0.329-17.558,6.707
		c-3.191,3.191-3.191,8.364,0,11.554c1.596,1.596,3.686,2.393,5.778,2.393c2.09,0,4.182-0.797,5.777-2.392
		c1.715-1.715,2.841-1.822,6.485-1.929c4.452-0.131,11.18-0.329,17.56-6.709c6.378-6.378,6.577-13.106,6.708-17.558
		c0.108-3.644,0.215-4.77,1.93-6.486c1.715-1.714,2.841-1.821,6.484-1.929c4.451-0.131,11.179-0.329,17.558-6.707
		c6.378-6.378,6.576-13.106,6.707-17.557c0.107-3.644,0.215-4.77,1.929-6.485c3.191-3.191,3.19-8.364-0.001-11.554
		c-3.191-3.19-8.364-3.191-11.554,0.001c-6.378,6.378-6.576,13.106-6.707,17.557c-0.107,3.644-0.215,4.77-1.928,6.484
		c-1.715,1.715-2.841,1.821-6.484,1.929c-4.452,0.131-11.18,0.329-17.559,6.708c-6.378,6.378-6.577,13.106-6.708,17.558
		C239.559,211.612,239.451,212.739,237.735,214.454z"/>
</g>
</svg>