<?xml version="1.0" encoding="iso-8859-1"?>
<!-- Uploaded to: SVG Repo, www.svgrepo.com, Generator: SVG Repo Mixer Tools -->
<svg height="800px" width="800px" version="1.1" id="Layer_1" xmlns="http://www.w3.org/2000/svg" xmlns:xlink="http://www.w3.org/1999/xlink" 
	 viewBox="0 0 511.999 511.999" xml:space="preserve">
<polygon style="fill:#5CC4E0;" points="366.612,72.121 366.612,199.845 255.999,263.707 145.387,199.845 145.387,72.121 
	255.999,8.259 "/>
<polygon style="fill:#439EE8;" points="176.305,54.504 145.387,72.121 145.387,199.845 256,263.707 286.715,245.973 
	176.305,182.228 "/>
<polygon style="fill:#FAEC8E;" points="243.294,287.93 243.294,415.654 132.679,479.516 22.066,415.654 22.066,287.93 
	132.679,224.068 "/>
<polygon style="fill:#FBC96C;" points="52.985,270.313 22.066,287.93 22.066,415.654 132.68,479.516 163.396,461.783 
	52.985,398.037 "/>
<polygon style="fill:#FF675C;" points="490.021,287.93 490.021,415.654 379.408,479.516 268.793,415.654 268.793,287.93 
	379.408,224.068 "/>
<polygon style="fill:#DB3D5A;" points="299.712,270.313 268.793,287.93 268.793,415.654 379.408,479.516 410.123,461.783 
	299.712,398.037 "/>
<path d="M251.551,415.654V287.93c0-2.951-1.575-5.676-4.129-7.151l-110.613-63.862c-2.554-1.475-5.704-1.475-8.258,0L17.937,280.779
	c-2.554,1.475-4.129,4.201-4.129,7.151v127.724c0,2.951,1.575,5.676,4.129,7.151l110.613,63.862
	c1.277,0.738,2.703,1.107,4.129,1.107s2.852-0.369,4.129-1.107l110.613-63.862C249.977,421.331,251.551,418.605,251.551,415.654z
	 M235.035,410.886l-102.355,59.094L30.324,410.887V292.698l102.355-59.094l102.355,59.094V410.886z"/>
<path d="M494.061,280.779l-110.613-63.862c-2.555-1.475-5.704-1.475-8.258,0l-110.613,63.862c-2.555,1.475-4.129,4.201-4.129,7.151
	v127.724c0,2.951,1.574,5.676,4.129,7.151l110.613,63.862c1.277,0.738,2.703,1.107,4.129,1.107c1.426,0,2.852-0.369,4.129-1.107
	l110.613-63.862c2.555-1.475,4.129-4.201,4.129-7.151V287.93C498.19,284.98,496.617,282.254,494.061,280.779z M481.674,410.886
	l-102.355,59.094l-102.355-59.094V292.698l102.355-59.094l102.355,59.094V410.886z"/>
<path d="M370.741,496.588l-110.613-63.862c-3.95-2.281-9-0.927-11.28,3.022c-2.28,3.95-0.927,9,3.022,11.28l110.613,63.862
	c1.3,0.751,2.721,1.108,4.121,1.108c2.854,0,5.63-1.482,7.159-4.13C376.045,503.919,374.692,498.868,370.741,496.588z"/>
<path d="M218.333,452.09l-77.075,44.499c-3.95,2.28-5.303,7.331-3.022,11.28c1.529,2.649,4.305,4.13,7.159,4.13
	c1.401,0,2.821-0.357,4.121-1.108l77.075-44.499c3.95-2.28,5.303-7.331,3.022-11.28C227.333,451.162,222.281,449.809,218.333,452.09
	z"/>
<path d="M428.368,59.404c1.401,0,2.821-0.357,4.121-1.108l74.278-42.884c3.95-2.28,5.303-7.331,3.022-11.28
	c-2.28-3.95-7.331-5.303-11.28-3.022l-74.278,42.884c-3.95,2.28-5.303,7.331-3.022,11.28
	C422.739,57.921,425.515,59.404,428.368,59.404z"/>
<path d="M506.767,256.555l-106.484-61.478V72.121c0-4.561-3.697-8.258-8.258-8.258c-4.561,0-8.258,3.697-8.258,8.258v127.724
	c0,2.951,1.575,5.676,4.129,7.151l110.613,63.862c1.3,0.751,2.721,1.108,4.121,1.108c2.854,0,5.63-1.482,7.159-4.13
	C512.071,263.886,510.718,258.836,506.767,256.555z"/>
<path d="M128.231,199.845V72.121c0-2.951-1.575-5.676-4.129-7.151L13.489,1.107C9.539-1.173,4.49,0.181,2.208,4.13
	c-2.28,3.95-0.927,9,3.022,11.28l106.484,61.478v118.189L5.231,256.555c-3.95,2.28-5.303,7.331-3.022,11.28
	c1.529,2.649,4.305,4.13,7.159,4.13c1.401,0,2.821-0.357,4.121-1.108l110.613-63.862
	C126.658,205.522,128.231,202.796,128.231,199.845z"/>
<path d="M141.258,206.997l110.613,63.862c1.277,0.738,2.703,1.107,4.129,1.107c1.426,0,2.852-0.369,4.129-1.107l110.613-63.862
	c2.554-1.475,4.129-4.201,4.129-7.151V72.122c0-2.951-1.575-5.676-4.129-7.151L260.129,1.109c-2.555-1.475-5.704-1.475-8.258,0
	L141.258,64.971c-2.554,1.475-4.129,4.201-4.129,7.151v127.724C137.128,202.796,138.702,205.522,141.258,206.997z M153.645,76.89
	L256,17.795L358.355,76.89v118.189L256,254.173l-102.355-59.094L153.645,76.89L153.645,76.89z"/>
<path d="M207.047,408.497c4.561,0,8.258-3.697,8.258-8.258v-4.467c0-4.561-3.697-8.258-8.258-8.258s-8.258,3.697-8.258,8.258v4.467
	C198.789,404.801,202.485,408.497,207.047,408.497z"/>
<path d="M207.047,369.832c4.561,0,8.258-3.697,8.258-8.258v-58.228c0-4.561-3.697-8.258-8.258-8.258s-8.258,3.697-8.258,8.258
	v58.228C198.789,366.135,202.485,369.832,207.047,369.832z"/>
<path d="M453.686,408.497c4.561,0,8.258-3.697,8.258-8.258v-4.467c0-4.561-3.697-8.258-8.258-8.258
	c-4.561,0-8.258,3.697-8.258,8.258v4.467C445.428,404.801,449.124,408.497,453.686,408.497z"/>
<path d="M453.686,369.832c4.561,0,8.258-3.697,8.258-8.258v-58.228c0-4.561-3.697-8.258-8.258-8.258
	c-4.561,0-8.258,3.697-8.258,8.258v58.228C445.428,366.135,449.124,369.832,453.686,369.832z"/>
<path d="M330.366,188.284c4.561,0,8.258-3.697,8.258-8.258v-4.467c0-4.561-3.697-8.258-8.258-8.258
	c-4.561,0-8.258,3.697-8.258,8.258v4.467C322.108,184.587,325.804,188.284,330.366,188.284z"/>
<path d="M330.366,149.618c4.561,0,8.258-3.697,8.258-8.258V83.132c0-4.561-3.697-8.258-8.258-8.258
	c-4.561,0-8.258,3.697-8.258,8.258v58.228C322.108,145.921,325.804,149.618,330.366,149.618z"/>
</svg>