<svg width="46" height="46" viewBox="0 0 46 46" fill="none" xmlns="http://www.w3.org/2000/svg">
<g clip-path="url(#clip0_101_50)">
<path d="M4.00006 18.433C3.98031 26.1783 8.68265 32.7377 15.3096 35.5541V38H29.4841V35.5541C36.1111 32.7377 40.8136 26.1783 40.7937 18.433C40.7937 18.433 4.00036 18.4328 4.00006 18.433ZM28.2778 28.828H24.0556V33.1082H20.7381V28.828H16.5159V25.4649H20.7381V21.1846H24.0556V25.4649H28.2778V28.828ZM42 10.4565C42 11.0859 41.7624 11.7152 41.2901 12.1939L36.7946 16.9043H29.8581L37.8625 8.7192C38.8085 7.76027 40.344 7.76027 41.2901 8.7192C41.7624 9.19951 42 9.82871 42 10.4565Z" fill="#2F2E41"/>
<path d="M24.02 14V3.182L25.532 3.218L20.132 9.608L19.88 8.852H29.006V11.12H18.782L17.684 9.014L24.326 1.328H26.63V14H24.02Z" fill="#2F2E41"/>
</g>
<defs>
<clipPath id="clip0_101_50">
<rect width="46" height="46" fill="white"/>
</clipPath>
</defs>
</svg>
