<svg width="46" height="46" viewBox="0 0 46 46" fill="none" xmlns="http://www.w3.org/2000/svg">
<g clip-path="url(#clip0_101_47)">
<path d="M4.00006 18.433C3.98031 26.1783 8.68265 32.7377 15.3096 35.5541V38H29.4841V35.5541C36.1111 32.7377 40.8136 26.1783 40.7937 18.433C40.7937 18.433 4.00036 18.4328 4.00006 18.433ZM28.2778 28.828H24.0556V33.1082H20.7381V28.828H16.5159V25.4649H20.7381V21.1846H24.0556V25.4649H28.2778V28.828ZM42 10.4565C42 11.0859 41.7624 11.7152 41.2901 12.1939L36.7946 16.9043H29.8581L37.8625 8.7192C38.8085 7.76027 40.344 7.76027 41.2901 8.7192C41.7624 9.19951 42 9.82871 42 10.4565Z" fill="#2F2E41"/>
<path d="M22.814 14.18C21.722 14.18 20.78 13.952 19.988 13.496C19.196 13.028 18.5 12.326 17.9 11.39L19.88 10.022C20.132 10.394 20.402 10.724 20.69 11.012C20.99 11.288 21.32 11.51 21.68 11.678C22.04 11.834 22.436 11.912 22.868 11.912C23.3 11.912 23.702 11.84 24.074 11.696C24.446 11.54 24.746 11.312 24.974 11.012C25.214 10.712 25.334 10.346 25.334 9.914C25.334 9.494 25.226 9.152 25.01 8.888C24.806 8.624 24.53 8.432 24.182 8.312C23.846 8.18 23.48 8.114 23.084 8.114C22.892 8.114 22.688 8.132 22.472 8.168C22.256 8.192 22.052 8.234 21.86 8.294C21.668 8.354 21.47 8.426 21.266 8.51L20.582 6.926L24.272 3.2L24.74 3.722L18.728 3.65V1.328H27.026L27.53 2.57L22.994 7.106L22.364 6.152C22.484 6.104 22.67 6.062 22.922 6.026C23.186 5.99 23.45 5.972 23.714 5.972C24.266 5.972 24.788 6.074 25.28 6.278C25.772 6.47 26.21 6.74 26.594 7.088C26.978 7.436 27.278 7.844 27.494 8.312C27.722 8.78 27.836 9.29 27.836 9.842C27.836 10.694 27.608 11.45 27.152 12.11C26.708 12.758 26.108 13.268 25.352 13.64C24.608 14 23.762 14.18 22.814 14.18Z" fill="#2F2E41"/>
</g>
<defs>
<clipPath id="clip0_101_47">
<rect width="46" height="46" fill="white"/>
</clipPath>
</defs>
</svg>
