<svg width="46" height="46" viewBox="0 0 46 46" fill="none" xmlns="http://www.w3.org/2000/svg">
<g clip-path="url(#clip0_101_32)">
<path d="M4.00006 18.433C3.98031 26.1783 8.68265 32.7377 15.3096 35.5541V38H29.4841V35.5541C36.1111 32.7377 40.8136 26.1783 40.7937 18.433C40.7937 18.433 4.00036 18.4328 4.00006 18.433ZM28.2778 28.828H24.0556V33.1082H20.7381V28.828H16.5159V25.4649H20.7381V21.1846H24.0556V25.4649H28.2778V28.828ZM42 10.4565C42 11.0859 41.7624 11.7152 41.2901 12.1939L36.7946 16.9043H29.8581L37.8625 8.7192C38.8085 7.76027 40.344 7.76027 41.2901 8.7192C41.7624 9.19951 42 9.82871 42 10.4565Z" fill="#2F2E41"/>
<path d="M18.764 14L18.134 12.416L21.95 8.6C22.226 8.336 22.508 8.054 22.796 7.754C23.084 7.442 23.354 7.13 23.606 6.818C23.87 6.494 24.08 6.182 24.236 5.882C24.392 5.57 24.47 5.282 24.47 5.018C24.47 4.73 24.404 4.484 24.272 4.28C24.152 4.064 23.966 3.896 23.714 3.776C23.462 3.656 23.15 3.596 22.778 3.596C22.442 3.596 22.106 3.674 21.77 3.83C21.446 3.974 21.134 4.202 20.834 4.514C20.546 4.814 20.282 5.204 20.042 5.684L18.044 4.514C18.344 3.854 18.74 3.272 19.232 2.768C19.724 2.264 20.294 1.868 20.942 1.58C21.602 1.292 22.31 1.148 23.066 1.148C23.858 1.16 24.56 1.316 25.172 1.616C25.784 1.916 26.264 2.336 26.612 2.876C26.96 3.404 27.134 4.016 27.134 4.712C27.134 5.048 27.08 5.378 26.972 5.702C26.876 6.026 26.738 6.356 26.558 6.692C26.378 7.016 26.156 7.346 25.892 7.682C25.64 8.018 25.358 8.36 25.046 8.708C24.734 9.056 24.398 9.41 24.038 9.77L20.996 12.776L20.744 11.57H27.656V14H18.764Z" fill="#2F2E41"/>
</g>
<defs>
<clipPath id="clip0_101_32">
<rect width="46" height="46" fill="white"/>
</clipPath>
</defs>
</svg>
