<svg width="46" height="46" viewBox="0 0 46 46" fill="none" xmlns="http://www.w3.org/2000/svg">
<g clip-path="url(#clip0_101_50)">
<path d="M4.00006 18.433C3.98031 26.1783 8.68265 32.7377 15.3096 35.5541V38H29.4841V35.5541C36.1111 32.7377 40.8136 26.1783 40.7937 18.433C40.7937 18.433 4.00036 18.4328 4.00006 18.433ZM28.2778 28.828H24.0556V33.1082H20.7381V28.828H16.5159V25.4649H20.7381V21.1846H24.0556V25.4649H28.2778V28.828ZM42 10.4565C42 11.0859 41.7624 11.7152 41.2901 12.1939L36.7946 16.9043H29.8581L37.8625 8.7192C38.8085 7.76027 40.344 7.76027 41.2901 8.7192C41.7624 9.19951 42 9.82871 42 10.4565Z" fill="#2F2E41"/>
<path d="M22.724 14.126C21.776 14.126 20.906 13.94 20.114 13.568C19.322 13.184 18.656 12.662 18.116 12.002L19.556 10.274C20.072 10.802 20.582 11.192 21.086 11.444C21.59 11.684 22.112 11.804 22.652 11.804C23.144 11.804 23.576 11.714 23.948 11.534C24.332 11.354 24.632 11.108 24.848 10.796C25.064 10.472 25.172 10.106 25.172 9.698C25.172 9.302 25.064 8.948 24.848 8.636C24.632 8.324 24.338 8.078 23.966 7.898C23.606 7.706 23.192 7.61 22.724 7.61C22.352 7.61 22.01 7.646 21.698 7.718C21.386 7.778 21.086 7.868 20.798 7.988C20.522 8.108 20.234 8.246 19.934 8.402L18.71 6.818L19.484 1.328H26.864V3.65H20.852L21.5 2.858L20.906 6.854L20.06 6.44C20.252 6.272 20.522 6.116 20.87 5.972C21.218 5.828 21.602 5.708 22.022 5.612C22.442 5.516 22.85 5.468 23.246 5.468C24.086 5.468 24.836 5.648 25.496 6.008C26.156 6.356 26.684 6.854 27.08 7.502C27.476 8.138 27.674 8.876 27.674 9.716C27.674 10.544 27.458 11.294 27.026 11.966C26.594 12.626 26 13.154 25.244 13.55C24.5 13.934 23.66 14.126 22.724 14.126Z" fill="#2F2E41"/>
</g>
<defs>
<clipPath id="clip0_101_50">
<rect width="46" height="46" fill="white"/>
</clipPath>
</defs>
</svg>
