<?xml version="1.0" encoding="iso-8859-1"?>
<!-- Generator: Adobe Illustrator 19.0.0, SVG Export Plug-In . SVG Version: 6.00 Build 0)  -->
<svg version="1.1" id="Layer_1" xmlns="http://www.w3.org/2000/svg" xmlns:xlink="http://www.w3.org/1999/xlink" x="0px" y="0px"
	 viewBox="0 0 512 512" style="enable-background:new 0 0 512 512;" xml:space="preserve">
<g>
	<g>
		<path d="M392.051,171.301c25.775-20.498,39.971-47.962,39.971-77.33c0-5.633-4.566-10.199-10.199-10.199H175.182
			c-5.633,0-10.199,4.566-10.199,10.199c0,29.369,14.195,56.832,39.971,77.33c18.389,14.625,41.152,24.426,65.871,28.622v110.522
			c-11.448-0.629-30.078-1.612-38.205-1.812c-74.154-1.824-132.242-59.802-132.242-131.994c0-47.219,25.487-91.145,66.514-114.634
			c4.888-2.799,6.583-9.03,3.783-13.918c-2.798-4.888-9.03-6.583-13.918-3.784c-47.358,27.113-76.778,77.821-76.778,132.336
			c0,40.505,15.867,78.529,44.678,107.065c28.492,28.222,66.656,44.318,107.461,45.321c8.04,0.198,27.489,1.232,38.707,1.85v77.613
			c-12.398,1.017-25.291,1.547-38.457,1.547c-5.633,0-10.199,4.566-10.199,10.199c0,5.633,4.566,10.199,10.199,10.199
			c12.9,0,25.823-0.502,38.457-1.496V445.9c-15.563,9.407-25.992,26.489-25.992,45.964v9.937c0,5.633,4.566,10.199,10.199,10.199
			h86.941c5.633,0,10.199-4.566,10.199-10.199v-9.936c0-19.474-10.429-36.557-25.992-45.964v-25.096
			c42.996-9.815,74.008-27.042,74.008-51.273c0-22.21-26.217-40.28-74.008-51.218v-118.39
			C350.9,195.727,373.661,185.925,392.051,171.301z M331.772,491.602h-66.54c0.142-18.226,15.011-33.008,33.27-33.008
			S331.631,473.376,331.772,491.602z M305.781,424.768v13.934c-2.383-0.324-4.809-0.507-7.279-0.507
			c-2.47,0-4.897,0.183-7.279,0.507v-11.838C296.159,426.245,301.018,425.547,305.781,424.768z M291.223,406.316V202.08
			c2.416,0.104,4.843,0.162,7.279,0.162s4.863-0.058,7.279-0.162v201.993C301.049,404.902,296.198,405.655,291.223,406.316z
			 M379.79,369.531c0,6.259-10.238,16.862-39.091,26.144c-4.595,1.478-9.461,2.837-14.52,4.1v-60.489
			C365.259,348.982,379.79,362.356,379.79,369.531z M298.502,181.845c-57.937,0-105.839-34.007-112.364-77.675h224.727
			C404.341,147.837,356.439,181.845,298.502,181.845z"/>
	</g>
</g>
<g>
	<g>
		<path d="M273.15,0c-27.352,0-48.778,15.132-48.778,34.449c0,19.317,21.427,34.449,48.778,34.449
			c27.352,0,48.778-15.132,48.778-34.449C321.928,15.132,300.502,0,273.15,0z M273.15,48.499c-17.324,0-28.379-8.322-28.379-14.05
			c0-5.729,11.056-14.05,28.379-14.05c17.324,0,28.379,8.322,28.379,14.05C301.529,40.178,290.474,48.499,273.15,48.499z"/>
	</g>
</g>
<g>
	<g>
		<path d="M212.566,35.603c-1.217-5.499-6.66-8.972-12.163-7.754c-3.561,0.787-7.139,1.718-10.636,2.763
			c-5.397,1.614-8.464,7.295-6.851,12.693c1.321,4.422,5.375,7.281,9.767,7.281c0.967,0,1.951-0.139,2.925-0.429
			c3.026-0.905,6.122-1.708,9.203-2.391C210.311,46.549,213.782,41.104,212.566,35.603z"/>
	</g>
</g>
<g>
</g>
<g>
</g>
<g>
</g>
<g>
</g>
<g>
</g>
<g>
</g>
<g>
</g>
<g>
</g>
<g>
</g>
<g>
</g>
<g>
</g>
<g>
</g>
<g>
</g>
<g>
</g>
<g>
</g>
</svg>
