<?xml version="1.0" encoding="iso-8859-1"?>
<!-- Generator: Adobe Illustrator 19.0.0, SVG Export Plug-In . SVG Version: 6.00 Build 0)  -->
<svg version="1.1" id="Layer_1" xmlns="http://www.w3.org/2000/svg" xmlns:xlink="http://www.w3.org/1999/xlink" x="0px" y="0px"
	 viewBox="0 0 512 512" style="enable-background:new 0 0 512 512;" xml:space="preserve">
<path style="fill:#CFF09E;" d="M418.127,230.339c-44.688-44.688-109.768-56.492-165.277-35.501v187.631
	c0,32.93-15.784,62.337-40.145,81.08c61.083,47.412,149.319,43.112,205.421-12.992C478.938,389.746,478.938,291.15,418.127,230.339z
	"/>
<g>
	<path style="fill:#507C5C;" d="M308.089,512c-0.006,0-0.006,0-0.013,0c-37.928-0.003-75.251-12.76-105.094-35.924
		c-3.879-3.011-6.145-7.649-6.133-12.56s2.296-9.54,6.187-12.533c21.58-16.602,33.958-41.574,33.958-68.512V194.838
		c0-6.593,4.08-12.5,10.248-14.833c19.476-7.366,39.944-11.1,60.837-11.1c45.811,0,88.875,17.834,121.262,50.219
		c32.407,32.407,50.252,75.494,50.252,121.323s-17.847,88.916-50.252,121.322C396.951,494.161,353.885,512,308.089,512z
		 M238.17,461.581c21.112,12.148,45.351,18.702,69.907,18.703c0.003,0,0.008,0,0.009,0c37.331,0,72.427-14.538,98.827-40.94
		c26.416-26.416,40.965-61.539,40.965-98.897c0-37.359-14.549-72.481-40.965-98.897c-26.396-26.396-61.495-40.932-98.835-40.932
		c-13.418,0-26.616,1.885-39.371,5.617v176.231C268.708,412.125,257.776,440.016,238.17,461.581z"/>
	<path style="fill:#507C5C;" d="M257.495,406.827c-4.059,0-8.116-1.548-11.212-4.645c-6.192-6.192-6.192-16.233,0-22.427
		l101.042-101.042c6.194-6.192,16.231-6.192,22.427,0c6.192,6.192,6.192,16.233,0,22.427L268.709,402.182
		C265.611,405.278,261.555,406.827,257.495,406.827z"/>
	<path style="fill:#507C5C;" d="M150.557,500.62c-65.148,0-118.15-53.002-118.15-118.15V118.15C32.407,53.002,85.409,0,150.557,0
		s118.15,53.002,118.15,118.15c0,8.758-7.101,15.857-15.857,15.857s-15.857-7.099-15.857-15.857
		c0-47.661-38.775-86.436-86.436-86.436S64.121,70.489,64.121,118.15v264.319c0,47.661,38.775,86.436,86.436,86.436
		s86.436-38.775,86.436-86.436c0-8.758,7.101-15.857,15.857-15.857s15.857,7.099,15.857,15.857
		C268.708,447.617,215.706,500.62,150.557,500.62z"/>
	<path style="fill:#507C5C;" d="M184.514,266.166h-67.912c-8.756,0-15.857-7.099-15.857-15.857s7.101-15.857,15.857-15.857h67.912
		c8.756,0,15.857,7.099,15.857,15.857S193.27,266.166,184.514,266.166z"/>
</g>
<g>
</g>
<g>
</g>
<g>
</g>
<g>
</g>
<g>
</g>
<g>
</g>
<g>
</g>
<g>
</g>
<g>
</g>
<g>
</g>
<g>
</g>
<g>
</g>
<g>
</g>
<g>
</g>
<g>
</g>
</svg>
