<svg width="331" height="82" viewBox="0 0 331 82" fill="none" xmlns="http://www.w3.org/2000/svg">
<path d="M67.8323 36.8903C60.8498 29.7332 50.6811 27.8427 42.0078 31.2046V61.2548C42.0078 66.5288 39.5416 71.2385 35.7352 74.2403C45.2794 81.8336 59.0663 81.145 67.8322 72.1596C77.3341 62.4203 77.3341 46.6295 67.8323 36.8903Z" fill="#CFF09E"/>
<path d="M50.6389 82C50.638 82 50.638 82 50.6369 82C44.7106 81.9995 38.8789 79.9564 34.2159 76.2465C33.6098 75.7643 33.2558 75.0215 33.2577 74.2349C33.2595 73.4484 33.6164 72.7071 34.2244 72.2277C37.5963 69.5688 39.5303 65.5694 39.5303 61.2551V31.2045C39.5303 30.1486 40.1678 29.2025 41.1316 28.8289C44.1747 27.6492 47.3728 27.0511 50.6373 27.0511C57.7953 27.0511 64.5241 29.9074 69.5845 35.094C74.6481 40.2842 77.4364 47.1849 77.4364 54.5247C77.4364 61.8645 74.6478 68.7651 69.5845 73.9551C64.5236 79.1429 57.7945 82 50.6389 82ZM39.7141 73.925C43.0128 75.8706 46.8002 76.9203 50.637 76.9204C50.6375 76.9204 50.6384 76.9204 50.6384 76.9204C56.4714 76.9204 61.9552 74.5921 66.0802 70.3636C70.2077 66.133 72.4809 60.5078 72.4809 54.5247C72.4809 48.5414 70.2077 42.9164 66.0802 38.6857C61.9558 34.4582 56.4716 32.1302 50.6372 32.1302C48.5406 32.1302 46.4784 32.4321 44.4855 33.0298V61.2543C44.4856 66.0044 42.7775 70.4713 39.7141 73.925Z" fill="#507C5C"/>
<path d="M42.7336 65.1559C42.0994 65.1559 41.4655 64.908 40.9817 64.412C40.0142 63.4203 40.0142 61.8122 40.9817 60.8202L56.7695 44.6377C57.7373 43.646 59.3056 43.646 60.2738 44.6377C61.2413 45.6294 61.2413 47.2375 60.2738 48.2295L44.4858 64.412C44.0017 64.9079 43.368 65.1559 42.7336 65.1559Z" fill="#507C5C"/>
<path d="M26.0245 80.1774C15.8452 80.1774 7.56359 71.6888 7.56359 61.255V18.9225C7.56359 8.4886 15.8452 0 26.0245 0C36.2039 0 44.4855 8.4886 44.4855 18.9225C44.4855 20.3251 43.3759 21.4621 42.0078 21.4621C40.6397 21.4621 39.5302 20.3251 39.5302 18.9225C39.5302 11.2893 33.4716 5.0792 26.0245 5.0792C18.5775 5.0792 12.5189 11.2893 12.5189 18.9225V61.2548C12.5189 68.888 18.5775 75.0981 26.0245 75.0981C33.4716 75.0981 39.5302 68.888 39.5302 61.2548C39.5302 59.8522 40.6397 58.7152 42.0078 58.7152C43.3759 58.7152 44.4855 59.8522 44.4855 61.2548C44.4856 71.6887 36.2041 80.1774 26.0245 80.1774Z" fill="#507C5C"/>
<path d="M31.3303 42.6281H20.7191C19.3509 42.6281 18.2414 41.4912 18.2414 40.0885C18.2414 38.6859 19.3509 37.549 20.7191 37.549H31.3303C32.6984 37.549 33.808 38.6859 33.808 40.0885C33.808 41.4912 32.6984 42.6281 31.3303 42.6281Z" fill="#507C5C"/>
<path d="M130.32 37.44C130.32 39.88 129.76 42.12 128.64 44.16C127.52 46.16 125.8 47.78 123.48 49.02C121.16 50.26 118.28 50.88 114.84 50.88H108.48V66H98.22V23.88H114.84C118.2 23.88 121.04 24.46 123.36 25.62C125.68 26.78 127.42 28.38 128.58 30.42C129.74 32.46 130.32 34.8 130.32 37.44ZM114.06 42.72C116.02 42.72 117.48 42.26 118.44 41.34C119.4 40.42 119.88 39.12 119.88 37.44C119.88 35.76 119.4 34.46 118.44 33.54C117.48 32.62 116.02 32.16 114.06 32.16H108.48V42.72H114.06ZM172.141 23.88V66H161.881V48.66H145.921V66H135.661V23.88H145.921V40.38H161.881V23.88H172.141ZM200.128 32.16C203.968 32.16 207.048 33.44 209.368 36C211.688 38.52 212.848 42 212.848 46.44V66H202.648V47.82C202.648 45.58 202.068 43.84 200.908 42.6C199.748 41.36 198.188 40.74 196.228 40.74C194.268 40.74 192.708 41.36 191.548 42.6C190.388 43.84 189.808 45.58 189.808 47.82V66H179.548V21.6H189.808V37.02C190.848 35.54 192.268 34.36 194.068 33.48C195.868 32.6 197.888 32.16 200.128 32.16ZM251.538 48.72C251.538 49.68 251.478 50.68 251.358 51.72H228.138C228.298 53.8 228.958 55.4 230.118 56.52C231.318 57.6 232.778 58.14 234.498 58.14C237.058 58.14 238.838 57.06 239.838 54.9H250.758C250.198 57.1 249.178 59.08 247.698 60.84C246.258 62.6 244.438 63.98 242.238 64.98C240.038 65.98 237.578 66.48 234.858 66.48C231.578 66.48 228.658 65.78 226.098 64.38C223.538 62.98 221.538 60.98 220.098 58.38C218.658 55.78 217.938 52.74 217.938 49.26C217.938 45.78 218.638 42.74 220.038 40.14C221.478 37.54 223.478 35.54 226.038 34.14C228.598 32.74 231.538 32.04 234.858 32.04C238.098 32.04 240.978 32.72 243.498 34.08C246.018 35.44 247.978 37.38 249.378 39.9C250.818 42.42 251.538 45.36 251.538 48.72ZM241.038 46.02C241.038 44.26 240.438 42.86 239.238 41.82C238.038 40.78 236.538 40.26 234.738 40.26C233.018 40.26 231.558 40.76 230.358 41.76C229.198 42.76 228.478 44.18 228.198 46.02H241.038ZM267.21 21.6V66H256.95V21.6H267.21ZM284.906 37.26C285.906 35.7 287.286 34.44 289.046 33.48C290.806 32.52 292.866 32.04 295.226 32.04C297.986 32.04 300.486 32.74 302.726 34.14C304.966 35.54 306.726 37.54 308.006 40.14C309.326 42.74 309.986 45.76 309.986 49.2C309.986 52.64 309.326 55.68 308.006 58.32C306.726 60.92 304.966 62.94 302.726 64.38C300.486 65.78 297.986 66.48 295.226 66.48C292.906 66.48 290.846 66 289.046 65.04C287.286 64.08 285.906 62.84 284.906 61.32V81.96H274.646V32.52H284.906V37.26ZM299.546 49.2C299.546 46.64 298.826 44.64 297.386 43.2C295.986 41.72 294.246 40.98 292.166 40.98C290.126 40.98 288.386 41.72 286.946 43.2C285.546 44.68 284.846 46.7 284.846 49.26C284.846 51.82 285.546 53.84 286.946 55.32C288.386 56.8 290.126 57.54 292.166 57.54C294.206 57.54 295.946 56.8 297.386 55.32C298.826 53.8 299.546 51.76 299.546 49.2Z" fill="url(#paint0_linear_110_2)"/>
<defs>
<linearGradient id="paint0_linear_110_2" x1="211.5" y1="0" x2="211.5" y2="80" gradientUnits="userSpaceOnUse">
<stop stop-color="#CFF09E"/>
<stop offset="1" stop-color="#689268"/>
</linearGradient>
</defs>
</svg>
