<svg width="144" height="144" viewBox="0 0 144 144" fill="none" xmlns="http://www.w3.org/2000/svg">
<path d="M70.869 40.3607C76.9488 29.4539 79.989 24.0005 84.534 24.0005C89.079 24.0005 92.1186 29.4539 98.199 40.3607L99.7716 43.1824C101.5 46.2818 102.363 47.8315 103.71 48.854C105.057 49.8764 106.735 50.256 110.09 51.0151L113.144 51.7062C124.951 54.3776 130.854 55.7132 132.259 60.2296C133.663 64.7458 129.638 69.4522 121.589 78.8644L119.507 81.2992C117.22 83.974 116.076 85.3114 115.562 86.9656C115.048 88.6198 115.22 90.4042 115.566 93.973L115.881 97.2214C117.098 109.779 117.706 116.058 114.029 118.85C110.352 121.641 104.825 119.096 93.771 114.006L90.9108 112.689C87.7692 111.243 86.199 110.52 84.534 110.52C82.869 110.52 81.2982 111.243 78.1572 112.689L75.297 114.006C64.2426 119.096 58.7156 121.641 55.0387 118.85C51.3618 116.058 51.9702 109.779 53.1871 97.2214L53.5019 93.973C53.8477 90.4042 54.0206 88.6198 53.5061 86.9656C52.9916 85.3114 51.848 83.974 49.5607 81.2992L47.4784 78.8644C39.4296 69.4522 35.4051 64.7458 36.8095 60.2296C38.214 55.7132 44.1172 54.3776 55.9237 51.7062L58.9782 51.0151C62.3334 50.256 64.011 49.8764 65.3574 48.854C66.7044 47.8315 67.5684 46.2818 69.2964 43.1824L70.869 40.3607Z" fill="#FEEA3B"/>
<path fill-rule="evenodd" clip-rule="evenodd" d="M52.473 31.2145C40.5832 27.7883 27.8293 29.598 15.5238 36.8044L14.2748 37.5359C12.1302 38.7918 9.37357 38.0714 8.11759 35.9268C6.86167 33.7822 7.58209 31.0255 9.72667 29.7696L10.9756 29.0382C25.1382 20.7442 40.4221 18.3756 54.965 22.5664L56.2123 22.9258C58.6004 23.614 59.9785 26.1077 59.2903 28.4959C58.6021 30.884 56.1084 32.2621 53.7202 31.5739L52.473 31.2145ZM29.0177 59.6188C29.2287 62.0952 27.3922 64.2738 24.9159 64.4844C23.997 64.563 23.2924 64.6074 22.7019 64.6452C21.6376 64.7124 20.9442 64.7568 20.0341 64.9314C18.8552 65.1576 17.3244 65.6364 14.5464 67.0254C12.3235 68.1372 9.62047 67.236 8.50903 65.013C7.39759 62.79 8.29855 60.087 10.5215 58.9758C13.7434 57.3648 16.0819 56.5255 18.3376 56.0926C19.819 55.8082 21.3483 55.7086 22.7235 55.619C23.2232 55.5865 23.7026 55.5553 24.152 55.517C26.6283 55.306 28.8067 57.1424 29.0177 59.6188ZM35.5073 95.1366C28.4035 93.4716 20.9192 95.1228 15.319 99.5352C13.3669 101.074 10.5375 100.738 8.99929 98.7858C7.46119 96.8334 7.79677 94.0044 9.74893 92.466C17.5357 86.3304 27.8347 84.0948 37.5606 86.3736C39.9804 86.9406 41.4823 89.3622 40.9153 91.782C40.3483 94.2018 37.927 95.7036 35.5073 95.1366Z" fill="#FEEA3B"/>
</svg>
